<svg width="512" height="512" xmlns="http://www.w3.org/2000/svg">

 <g>
  <title>background</title>
  <rect fill="none" id="canvas_background" height="402" width="582" y="-1" x="-1"/>
 </g>
 <g>
  <title>Layer 1</title>
  <path id="svg_2" fill-rule="evenodd" fill="#3A5BA2" d="m256.23,512c140.58,0 255.77,-115.19 255.77,-255.77c0,-141.046 -115.19,-256.23 -255.77,-256.23c-141.046,0 -256.23,115.184 -256.23,256.23c0,140.58 115.184,255.77 256.23,255.77l0,0z" clip-rule="evenodd"/>
  <path id="svg_3" fill-rule="evenodd" fill="#FFFFFF" d="m224.023,160.085c0,-35.372 28.575,-63.946 63.938,-63.946l48.072,0l0,63.946l-32.199,0c-8.608,0 -15.873,7.257 -15.873,15.873l0,32.192l48.072,0l0,63.938l-48.072,0l0,144.22l-63.938,0l0,-144.22l-48.065,0l0,-63.938l48.065,0l0,-48.065z" clip-rule="evenodd"/>
 </g>
</svg>