<svg width="128" height="128" xmlns="http://www.w3.org/2000/svg">

 <g>
  <title>background</title>
  <rect fill="none" id="canvas_background" height="402" width="582" y="-1" x="-1"/>
 </g>
 <g>
  <title>Layer 1</title>
  <circle id="svg_2" r="64" fill="#CC191E" cy="64" cx="64"/>
  <path id="svg_3" fill="#FFFFFF" d="m103.201,48.004c0,0 -0.781,-5.513 -3.18,-7.939c-3.043,-3.187 -6.453,-3.203 -8.016,-3.389c-11.191,-0.81 -27.988,-0.81 -27.988,-0.81l-0.036,0c0,0 -16.795,0 -27.988,0.81c-1.564,0.186 -4.972,0.201 -8.015,3.389c-2.399,2.426 -3.18,7.939 -3.18,7.939s-0.798,6.474 -0.798,12.949l0,6.071c0,6.471 0.799,12.947 0.799,12.947s0.781,5.51 3.18,7.938c3.044,3.189 7.041,3.088 8.82,3.422c6.401,0.615 27.202,0.805 27.202,0.805s16.81,-0.025 28.005,-0.834c1.564,-0.188 4.975,-0.203 8.016,-3.391c2.4,-2.43 3.182,-7.939 3.182,-7.939s0.796,-6.476 0.796,-12.949l0,-6.071c0,-6.474 -0.799,-12.948 -0.799,-12.948m-48.472,27.424l-0.003,-24.581l23.637,12.332l-23.634,12.249z"/>
 </g>
</svg>